<svg width="33" height="29" xmlns="http://www.w3.org/2000/svg" xmlns:xlink="http://www.w3.org/1999/xlink" xmlns:svgjs="http://svgjs.com/svgjs" viewBox="0 0.063 33 28.875"><svg xmlns="http://www.w3.org/2000/svg" width="33" height="29" viewBox="1 1 32 28" fill="#666d89"><path fill="#666D89" paint-order="stroke fill markers" fill-rule="evenodd" d="M17 6C11.037 6 6 9.206 6 13a.5.5 0 1 0 1 0c0-3.196 4.673-6 10-6a.5.5 0 1 0 0-1zm0-5C8.163 1 1 6.373 1 13c0 4.127 2.78 7.766 7.008 9.926 0 .027-.008.045-.008.074 0 1.793-1.339 3.723-1.928 4.736h.002A.906.906 0 0 0 6.906 29c.094 0 .259-.025.255-.012 3.125-.512 6.07-3.383 6.753-4.216.999.146 2.03.228 3.086.228 8.836 0 16-5.373 16-12S25.836 1 17 1zm0 22c-.917 0-1.857-.07-2.796-.207a2 2 0 0 0-1.836.71c-.428.521-1.645 1.683-3.085 2.539.39-.894.696-1.898.716-2.932a2 2 0 0 0-1.081-1.966C5.212 19.253 3 16.208 3 13 3 7.486 9.28 3 17 3s14 4.486 14 10-6.28 10-14 10z"/></svg></svg>