<svg width="23" height="33" xmlns="http://www.w3.org/2000/svg" xmlns:xlink="http://www.w3.org/1999/xlink" xmlns:svgjs="http://svgjs.com/svgjs" viewBox="0.156 0 22.688 33"><svg xmlns="http://www.w3.org/2000/svg" width="23" height="33" viewBox="2 1 22 32" fill="#666d89"><path fill="#666D89" paint-order="stroke fill markers" fill-rule="evenodd" d="M13 1C6.925 1 2 5.925 2 12c0 4.031 3.689 8.303 5.031 12.055C9.034 29.65 8.813 33 13 33c4.25 0 3.965-3.334 5.969-8.922C20.316 20.318 24 16 24 12c0-6.075-4.925-11-11-11zm2.593 27.176l-4.96.62a43.92 43.92 0 0 1-.597-1.893l-.009-.032 6.189-.773c-.088.296-.183.606-.264.884-.13.449-.249.84-.36 1.194zm-5.857-2.268A58.125 58.125 0 0 0 9.121 24h7.766c-.122.36-.245.719-.352 1.059l-6.799.85zM13 31c-1.013 0-1.48-.116-1.997-1.25l4.238-.53C14.628 30.873 14.181 31 13 31zm4.672-9H8.339c-.498-1.079-1.096-2.16-1.686-3.217C5.35 16.448 4 14.033 4 12c0-4.963 4.037-9 9-9s9 4.037 9 9c0 2.018-1.35 4.446-2.655 6.795-.585 1.054-1.178 2.13-1.673 3.205zM13 6c-3.309 0-6 2.691-6 6a.5.5 0 1 0 1 0c0-2.757 2.243-5 5-5a.5.5 0 1 0 0-1z"/></svg></svg>