<svg width="33" height="29" xmlns="http://www.w3.org/2000/svg" xmlns:xlink="http://www.w3.org/1999/xlink" xmlns:svgjs="http://svgjs.com/svgjs" viewBox="0 0.078 33 28.844"><svg xmlns="http://www.w3.org/2000/svg" width="33" height="29" viewBox="2.002 2.033 31.996 27.966" fill="#666d89"><path fill="#666D89" paint-order="stroke fill markers" fill-rule="evenodd" d="M31.192 4.792C27.562 1.201 21.761 1.126 18 4.505c-3.76-3.38-9.56-3.304-13.192.287a9.401 9.401 0 0 0 0 13.4l11.053 10.93a3.047 3.047 0 0 0 4.278 0l11.053-10.93a9.401 9.401 0 0 0 0-13.4zm-1.427 11.989L18.713 27.71c-.393.39-1.034.39-1.425 0L6.235 16.781a7.429 7.429 0 0 1 0-10.58c2.844-2.811 7.416-2.91 10.41-.22L18 7.198l1.356-1.219c2.993-2.689 7.567-2.59 10.41.222a7.429 7.429 0 0 1 0 10.579zM11.252 7.026l-.004.001a4.247 4.247 0 0 0-4.246 4.244.5.5 0 0 0 1 0 3.248 3.248 0 0 1 3.249-3.246.5.5 0 1 0 0-.999z"/></svg></svg>