<svg width="33" height="33" xmlns="http://www.w3.org/2000/svg" xmlns:xlink="http://www.w3.org/1999/xlink" xmlns:svgjs="http://svgjs.com/svgjs"><svg xmlns="http://www.w3.org/2000/svg" width="33" height="33" viewBox="1 1 32 32" fill="#666d89"><path fill="#666D89" paint-order="stroke fill markers" fill-rule="evenodd" d="M30.396 3.58C28.75 1.938 26.585 1 24.449 1c-1.8 0-3.459.668-4.669 1.877l-4.867 4.904c-.015.014-.032.024-.047.038-.008.008-.012.019-.02.027l.002.002-10.33 10.408a4.022 4.022 0 0 0-1.013 1.705l-2.349 8.508c-.003.023-.156.692-.156 1.03C1 31.434 2.57 33 4.505 33c.385 0 1.13-.183 1.157-.187l8.478-2.23a4.029 4.029 0 0 0 1.705-1.015l15.262-15.382c2.777-2.78 2.464-7.436-.711-10.606zM17.015 24.796a8.142 8.142 0 0 0-.72-2.628l9.455-9.453c.578 1.826.282 3.736-.985 5.004-.008.008-.018.012-.026.02l.013.013-7.728 7.79c.001-.249.013-.493-.01-.746zm-1.221-3.54c-.373-.613-.797-1.204-1.322-1.728-.612-.612-1.313-1.09-2.044-1.493l9.532-9.531a6.951 6.951 0 0 1 2.098 1.437 6.98 6.98 0 0 1 1.28 1.77l-9.544 9.545zm-4.308-3.693a7.973 7.973 0 0 0-2.868-.6l7.703-7.76C17.5 8.051 19.218 7.72 20.91 8.14l-9.423 9.422zm-6.318 13.31c-.11.026-.448.112-.679.127A1.505 1.505 0 0 1 3 29.5c.012-.167.08-.456.102-.563l1.052-3.814c1.143-.031 2.373.414 3.34 1.383.983.981 1.445 2.235 1.394 3.39l-3.72.977zm4.706-1.236c-.024-1.341-.57-2.737-1.672-3.837-1.042-1.044-2.405-1.646-3.765-1.7l.996-3.607c.072-.24.214-.476.39-.684 2.006-1.436 5.091-1.012 7.235 1.133 2.266 2.266 2.617 5.586.87 7.568-.115.06-.233.119-.359.157l-3.695.97zm19.818-16.864l-1.684 1.697c0-.226.027-.443.007-.674-.176-1.935-1.08-3.806-2.543-5.269-1.63-1.63-3.79-2.565-5.929-2.57l1.657-1.67C22.027 3.458 23.184 3 24.45 3c1.61 0 3.262.728 4.532 1.995 1.194 1.191 1.906 2.671 2.006 4.168.094 1.398-.366 2.679-1.296 3.61z"/></svg></svg>