<svg width="33" height="32" xmlns="http://www.w3.org/2000/svg" xmlns:xlink="http://www.w3.org/1999/xlink" xmlns:svgjs="http://svgjs.com/svgjs" viewBox="0 0.016 33 31.969"><svg xmlns="http://www.w3.org/2000/svg" width="33" height="32" viewBox="2 1 32 31" fill="#666d89"><path fill="#666D89" paint-order="stroke fill markers" fill-rule="evenodd" d="M33.88 12.557a2.3 2.3 0 0 0-1.842-1.511l-8.326-1.238-3.62-7.514A2.316 2.316 0 0 0 18 1c-.896 0-1.711.505-2.092 1.294l-3.62 7.514-8.326 1.238a2.298 2.298 0 0 0-1.842 1.51c-.276.801-.068 1.683.537 2.286l6.102 6.093-1.415 8.451c-.144.85.225 1.705.948 2.203a2.357 2.357 0 0 0 2.449.13L18 27.813l7.26 3.908a2.372 2.372 0 0 0 2.449-.13 2.228 2.228 0 0 0 .948-2.204l-1.416-8.451 6.103-6.093a2.208 2.208 0 0 0 .537-2.285zm-8.292 6.806a2.213 2.213 0 0 0-.626 1.934l1.415 8.452-7.259-3.907a2.359 2.359 0 0 0-2.235 0l-7.26 3.907 1.416-8.452a2.213 2.213 0 0 0-.626-1.934L4.31 13.272l8.326-1.24a2.307 2.307 0 0 0 1.744-1.268L18 3.25l3.62 7.513a2.305 2.305 0 0 0 1.742 1.267l8.327 1.24-6.101 6.092z"/></svg></svg>